<svg version="1.1" xmlns="http://www.w3.org/2000/svg" xmlns:xlink="http://www.w3.org/1999/xlink" width="660" height="748"><defs/><g><g transform="translate(-38,2) scale(1,1)"><path fill="none" stroke="#000000" d="M 48 8 L 688 8 L 688 736 L 48 736 L 48 8" stroke-miterlimit="10"/></g><g transform="translate(-38,2) scale(1,1)"><path fill="#ffffff" stroke="none" d="M 48 8 L 48 30 L 190.4580078125 30 L 201.4580078125 19 L 201.4580078125 8 L 48 8"/></g><g transform="translate(-38,2) scale(1,1)"><path fill="none" stroke="#000000" d="M 48 8 L 48 30 L 190.4580078125 30 L 201.4580078125 19 L 201.4580078125 8 L 48 8 L 48 8" stroke-miterlimit="10"/></g><g transform="translate(-38,2) scale(1,1)"><g><path fill="none" stroke="none"/><text fill="#000000" stroke="none" font-family="Arial" font-size="13px" font-style="normal" font-weight="normal" text-decoration="none" x="72.72998046875" y="24">Bírálatra továbbítás</text></g></g><g transform="translate(-38,2) scale(1,1)"><g><path fill="none" stroke="none"/><text fill="#000000" stroke="none" font-family="Arial" font-size="13px" font-style="normal" font-weight="bold" text-decoration="none" x="52.279541015625" y="24">sd</text></g></g><g transform="translate(-38,2) scale(1,1)"><rect fill="#C0C0C0" stroke="none" x="79" y="47" width="89.052734375" height="39" opacity="0.2"/></g><g transform="translate(-38,2) scale(1,1)"><rect fill="#ffffff" stroke="none" x="72" y="40" width="89.052734375" height="39"/></g><g transform="translate(-38,2) scale(1,1)"><path fill="none" stroke="#000000" d="M 72 40 L 161.052734375 40 L 161.052734375 79 L 72 79 L 72 40 Z Z" stroke-miterlimit="10"/></g><g transform="translate(-38,2) scale(1,1)"><g><path fill="none" stroke="none"/><text fill="#000000" stroke="none" font-family="Arial" font-size="13px" font-style="normal" font-weight="bold" text-decoration="none" x="81.5" y="58">:Konzulens</text></g></g><g transform="translate(-38,2) scale(1,1)"><path fill="none" stroke="#000000" d="M 117.5 80 L 117.5 678" stroke-miterlimit="10" stroke-dasharray="3"/></g><g transform="translate(-38,2) scale(1,1)"><rect fill="#C0C0C0" stroke="none" x="319" y="47" width="81.84814453125" height="39" opacity="0.2"/></g><g transform="translate(-38,2) scale(1,1)"><rect fill="#ffffff" stroke="none" x="312" y="40" width="81.84814453125" height="39"/></g><g transform="translate(-38,2) scale(1,1)"><path fill="none" stroke="#000000" d="M 312 40 L 393.84814453125 40 L 393.84814453125 79 L 312 79 L 312 40 Z Z" stroke-miterlimit="10"/></g><g transform="translate(-38,2) scale(1,1)"><g><path fill="none" stroke="none"/><text fill="#000000" stroke="none" font-family="Arial" font-size="13px" font-style="normal" font-weight="bold" text-decoration="none" x="321.5" y="58">:Rendszer</text></g></g><g transform="translate(-38,2) scale(1,1)"><path fill="none" stroke="#000000" d="M 353.5 80 L 353.5 678" stroke-miterlimit="10" stroke-dasharray="3"/></g><g transform="translate(-38,2) scale(1,1)"><path fill="#000000" stroke="none" d="M 583 503.5 C 583 499.6340064 586.1340064 496.5 590 496.5 C 593.8659936 496.5 597 499.6340064 597 503.5 C 597 507.3659936 593.8659936 510.5 590 510.5 C 586.1340064 510.5 583 507.3659936 583 503.5 Z"/></g><g transform="translate(-38,2) scale(1,1)"><path fill="#000000" stroke="none" d="M 584 527.5 C 584 523.6340064 587.1340064 520.5 591 520.5 C 594.8659936 520.5 598 523.6340064 598 527.5 C 598 531.3659936 594.8659936 534.5 591 534.5 C 587.1340064 534.5 584 531.3659936 584 527.5 Z"/></g><g transform="translate(-38,2) scale(1,1)"><path fill="none" stroke="#000000" d="M 117 104 L 346 104" stroke-miterlimit="10"/></g><g transform="translate(-38,2) scale(1,1)"><path fill="#000000" stroke="none" d="M 335.83732514237585 108.20951775601598 L 346 104 L 335.83732514237585 99.79048224398402"/></g><g transform="translate(-38,2) scale(1,1)"><path fill="none" stroke="#000000" d="M 335.83732514237585 108.20951775601598 L 346 104 L 335.83732514237585 99.79048224398402 L 335.83732514237585 108.20951775601598" stroke-miterlimit="10"/></g><g transform="translate(-38,2) scale(1,1)"><g><path fill="none" stroke="none"/><text fill="#000000" stroke="none" font-family="Arial" font-size="13px" font-style="normal" font-weight="normal" text-decoration="none" x="134.5" y="99">1 : továbbítóFelületKiválasztása()</text></g></g><g transform="translate(-38,2) scale(1,1)"><rect fill="#ffffff" stroke="none" x="346" y="104" width="13" height="28"/></g><g transform="translate(-38,2) scale(1,1)"><path fill="none" stroke="#000000" d="M 346 104 L 359 104 L 359 132 L 346 132 L 346 104 Z Z" stroke-miterlimit="10"/></g><g transform="translate(-38,2) scale(1,1)"><path fill="none" stroke="#000000" d="M 346 120 L 117 120" stroke-miterlimit="10" stroke-dasharray="3"/></g><g transform="translate(-38,2) scale(1,1)"><path fill="none" stroke="#000000" d="M 127.16267485762415 115.79048224398402 L 117 120 L 127.16267485762415 124.20951775601598" stroke-miterlimit="10"/></g><g transform="translate(-38,2) scale(1,1)"><g><path fill="none" stroke="none"/><text fill="#000000" stroke="none" font-family="Arial" font-size="13px" font-style="normal" font-weight="normal" text-decoration="none" x="132.5" y="135">2 : továbbító-felület megjelenítése</text></g></g><g transform="translate(-38,2) scale(1,1)"><path fill="none" stroke="#000000" d="M 117 160 L 346 160" stroke-miterlimit="10"/></g><g transform="translate(-38,2) scale(1,1)"><path fill="#000000" stroke="none" d="M 335.83732514237585 164.209517756016 L 346 160 L 335.83732514237585 155.790482243984"/></g><g transform="translate(-38,2) scale(1,1)"><path fill="none" stroke="#000000" d="M 335.83732514237585 164.209517756016 L 346 160 L 335.83732514237585 155.790482243984 L 335.83732514237585 164.209517756016" stroke-miterlimit="10"/></g><g transform="translate(-38,2) scale(1,1)"><g><path fill="none" stroke="none"/><text fill="#000000" stroke="none" font-family="Arial" font-size="13px" font-style="normal" font-weight="normal" text-decoration="none" x="166.5" y="155">3 : hallgatóKiválsztása</text></g></g><g transform="translate(-38,2) scale(1,1)"><rect fill="#ffffff" stroke="none" x="346" y="160" width="13" height="62"/></g><g transform="translate(-38,2) scale(1,1)"><path fill="none" stroke="#000000" d="M 346 160 L 359 160 L 359 222 L 346 222 L 346 160 Z Z" stroke-miterlimit="10"/></g><g transform="translate(-38,2) scale(1,1)"><path fill="none" stroke="#000000" d="M 117 184 L 353 184" stroke-miterlimit="10"/></g><g transform="translate(-38,2) scale(1,1)"><path fill="#000000" stroke="none" d="M 342.83732514237585 188.209517756016 L 353 184 L 342.83732514237585 179.790482243984"/></g><g transform="translate(-38,2) scale(1,1)"><path fill="none" stroke="#000000" d="M 342.83732514237585 188.209517756016 L 353 184 L 342.83732514237585 179.790482243984 L 342.83732514237585 188.209517756016" stroke-miterlimit="10"/></g><g transform="translate(-38,2) scale(1,1)"><g><path fill="none" stroke="none"/><text fill="#000000" stroke="none" font-family="Arial" font-size="13px" font-style="normal" font-weight="normal" text-decoration="none" x="162.5" y="179">4 : dolgozatKiválasztása()</text></g></g><g transform="translate(-38,2) scale(1,1)"><rect fill="#ffffff" stroke="none" x="353" y="184" width="13" height="28"/></g><g transform="translate(-38,2) scale(1,1)"><path fill="none" stroke="#000000" d="M 353 184 L 366 184 L 366 212 L 353 212 L 353 184 Z Z" stroke-miterlimit="10"/></g><g transform="translate(-38,2) scale(1,1)"><path fill="none" stroke="#000000" d="M 353 192 L 117 192" stroke-miterlimit="10" stroke-dasharray="3"/></g><g transform="translate(-38,2) scale(1,1)"><path fill="none" stroke="#000000" d="M 127.16267485762415 187.790482243984 L 117 192 L 127.16267485762415 196.209517756016" stroke-miterlimit="10"/></g><g transform="translate(-38,2) scale(1,1)"><g><path fill="none" stroke="none"/><text fill="#000000" stroke="none" font-family="Arial" font-size="13px" font-style="normal" font-weight="normal" text-decoration="none" x="187.5" y="207">5 : Bíráló autofill</text></g></g><g transform="translate(-38,2) scale(1,1)"><path fill="none" stroke="#000000" d="M 117 232 L 346 232" stroke-miterlimit="10"/></g><g transform="translate(-38,2) scale(1,1)"><path fill="#000000" stroke="none" d="M 335.83732514237585 236.209517756016 L 346 232 L 335.83732514237585 227.790482243984"/></g><g transform="translate(-38,2) scale(1,1)"><path fill="none" stroke="#000000" d="M 335.83732514237585 236.209517756016 L 346 232 L 335.83732514237585 227.790482243984 L 335.83732514237585 236.209517756016" stroke-miterlimit="10"/></g><g transform="translate(-38,2) scale(1,1)"><g><path fill="none" stroke="none"/><text fill="#000000" stroke="none" font-family="Arial" font-size="13px" font-style="normal" font-weight="normal" text-decoration="none" x="160.5" y="227">6 : címzettKiválasztása()</text></g></g><g transform="translate(-38,2) scale(1,1)"><rect fill="#ffffff" stroke="none" x="346" y="232" width="13" height="168"/></g><g transform="translate(-38,2) scale(1,1)"><path fill="none" stroke="#000000" d="M 346 232 L 359 232 L 359 400 L 346 400 L 346 232 Z Z" stroke-miterlimit="10"/></g><g transform="translate(-38,2) scale(1,1)"><path fill="none" stroke="#000000" d="M 359 240 L 389 240 L 389 260 L 366 260" stroke-miterlimit="10"/></g><g transform="translate(-38,2) scale(1,1)"><path fill="#000000" stroke="none" d="M 376.16267485762415 255.790482243984 L 366 260 L 376.16267485762415 264.209517756016"/></g><g transform="translate(-38,2) scale(1,1)"><path fill="none" stroke="#000000" d="M 376.16267485762415 255.790482243984 L 366 260 L 376.16267485762415 264.209517756016 L 376.16267485762415 255.790482243984" stroke-miterlimit="10"/></g><g transform="translate(-38,2) scale(1,1)"><g><path fill="none" stroke="none"/><text fill="#000000" stroke="none" font-family="Arial" font-size="13px" font-style="normal" font-weight="normal" text-decoration="none" x="391.5" y="251">7 : szövegkitöltés(szöveg)</text></g></g><g transform="translate(-38,2) scale(1,1)"><rect fill="#ffffff" stroke="none" x="353" y="260" width="13" height="28"/></g><g transform="translate(-38,2) scale(1,1)"><path fill="none" stroke="#000000" d="M 353 260 L 366 260 L 366 288 L 353 288 L 353 260 Z Z" stroke-miterlimit="10"/></g><g transform="translate(-38,2) scale(1,1)"><path fill="none" stroke="#000000" d="M 366 272 L 396 272 L 396 292 L 366 292" stroke-miterlimit="10"/></g><g transform="translate(-38,2) scale(1,1)"><path fill="#000000" stroke="none" d="M 376.16267485762415 287.790482243984 L 366 292 L 376.16267485762415 296.209517756016"/></g><g transform="translate(-38,2) scale(1,1)"><path fill="none" stroke="#000000" d="M 376.16267485762415 287.790482243984 L 366 292 L 376.16267485762415 296.209517756016 L 376.16267485762415 287.790482243984" stroke-miterlimit="10"/></g><g transform="translate(-38,2) scale(1,1)"><g><path fill="none" stroke="none"/><text fill="#000000" stroke="none" font-family="Arial" font-size="13px" font-style="normal" font-weight="normal" text-decoration="none" x="400.6708984375" y="286">8 : dokumentumCsatolása(témakiírás)</text></g></g><g transform="translate(-38,2) scale(1,1)"><rect fill="#ffffff" stroke="none" x="353" y="292" width="13" height="28"/></g><g transform="translate(-38,2) scale(1,1)"><path fill="none" stroke="#000000" d="M 353 292 L 366 292 L 366 320 L 353 320 L 353 292 Z Z" stroke-miterlimit="10"/></g><g transform="translate(-38,2) scale(1,1)"><path fill="none" stroke="#000000" d="M 366 304 L 396 304 L 396 324 L 366 324" stroke-miterlimit="10"/></g><g transform="translate(-38,2) scale(1,1)"><path fill="#000000" stroke="none" d="M 376.16267485762415 319.790482243984 L 366 324 L 376.16267485762415 328.209517756016"/></g><g transform="translate(-38,2) scale(1,1)"><path fill="none" stroke="#000000" d="M 376.16267485762415 319.790482243984 L 366 324 L 376.16267485762415 328.209517756016 L 376.16267485762415 319.790482243984" stroke-miterlimit="10"/></g><g transform="translate(-38,2) scale(1,1)"><g><path fill="none" stroke="none"/><text fill="#000000" stroke="none" font-family="Arial" font-size="13px" font-style="normal" font-weight="normal" text-decoration="none" x="402.9208984375" y="323">9 : dokumentumCsatolása(dolgozat)</text></g></g><g transform="translate(-38,2) scale(1,1)"><rect fill="#ffffff" stroke="none" x="353" y="324" width="13" height="28"/></g><g transform="translate(-38,2) scale(1,1)"><path fill="none" stroke="#000000" d="M 353 324 L 366 324 L 366 352 L 353 352 L 353 324 Z Z" stroke-miterlimit="10"/></g><g transform="translate(-38,2) scale(1,1)"><path fill="none" stroke="#000000" d="M 366 336 L 396 336 L 396 356 L 366 356" stroke-miterlimit="10"/></g><g transform="translate(-38,2) scale(1,1)"><path fill="#000000" stroke="none" d="M 376.16267485762415 351.790482243984 L 366 356 L 376.16267485762415 360.209517756016"/></g><g transform="translate(-38,2) scale(1,1)"><path fill="none" stroke="#000000" d="M 376.16267485762415 351.790482243984 L 366 356 L 376.16267485762415 360.209517756016 L 376.16267485762415 351.790482243984" stroke-miterlimit="10"/></g><g transform="translate(-38,2) scale(1,1)"><g><path fill="none" stroke="none"/><text fill="#000000" stroke="none" font-family="Arial" font-size="13px" font-style="normal" font-weight="normal" text-decoration="none" x="394.5" y="351.5">10 : dokumentumCsatolása(bírálatiŰrlap)</text></g></g><g transform="translate(-38,2) scale(1,1)"><rect fill="#ffffff" stroke="none" x="353" y="356" width="13" height="28"/></g><g transform="translate(-38,2) scale(1,1)"><path fill="none" stroke="#000000" d="M 353 356 L 366 356 L 366 384 L 353 384 L 353 356 Z Z" stroke-miterlimit="10"/></g><g transform="translate(-38,2) scale(1,1)"><path fill="none" stroke="#000000" d="M 346 392 L 117 392" stroke-miterlimit="10" stroke-dasharray="3"/></g><g transform="translate(-38,2) scale(1,1)"><path fill="none" stroke="#000000" d="M 127.16267485762415 387.790482243984 L 117 392 L 127.16267485762415 396.209517756016" stroke-miterlimit="10"/></g><g transform="translate(-38,2) scale(1,1)"><g><path fill="none" stroke="none"/><text fill="#000000" stroke="none" font-family="Arial" font-size="13px" font-style="normal" font-weight="normal" text-decoration="none" x="130.982421875" y="411">11 : megjeleníti a levél előnézetét</text></g></g><g transform="translate(-38,2) scale(1,1)"><path fill="none" stroke="#000000" d="M 117 440 L 346 440" stroke-miterlimit="10"/></g><g transform="translate(-38,2) scale(1,1)"><path fill="#000000" stroke="none" d="M 335.83732514237585 444.209517756016 L 346 440 L 335.83732514237585 435.790482243984"/></g><g transform="translate(-38,2) scale(1,1)"><path fill="none" stroke="#000000" d="M 335.83732514237585 444.209517756016 L 346 440 L 335.83732514237585 435.790482243984 L 335.83732514237585 444.209517756016" stroke-miterlimit="10"/></g><g transform="translate(-38,2) scale(1,1)"><g><path fill="none" stroke="none"/><text fill="#000000" stroke="none" font-family="Arial" font-size="13px" font-style="normal" font-weight="normal" text-decoration="none" x="195.371337890625" y="435">12 : küldés()</text></g></g><g transform="translate(-38,2) scale(1,1)"><rect fill="#ffffff" stroke="none" x="346" y="440" width="13" height="28"/></g><g transform="translate(-38,2) scale(1,1)"><path fill="none" stroke="#000000" d="M 346 440 L 359 440 L 359 468 L 346 468 L 346 440 Z Z" stroke-miterlimit="10"/></g><g transform="translate(-38,2) scale(1,1)"><path fill="none" stroke="#000000" d="M 346 448 L 117 448" stroke-miterlimit="10" stroke-dasharray="3"/></g><g transform="translate(-38,2) scale(1,1)"><path fill="none" stroke="#000000" d="M 127.16267485762415 443.790482243984 L 117 448 L 127.16267485762415 452.209517756016" stroke-miterlimit="10"/></g><g transform="translate(-38,2) scale(1,1)"><g><path fill="none" stroke="none"/><text fill="#000000" stroke="none" font-family="Arial" font-size="13px" font-style="normal" font-weight="normal" text-decoration="none" x="124.5" y="463">13 : küldés megerősítése felajánlása</text></g></g><g transform="translate(-38,2) scale(1,1)"><path fill="none" stroke="#000000" d="M 117 496 L 346 496" stroke-miterlimit="10"/></g><g transform="translate(-38,2) scale(1,1)"><path fill="#000000" stroke="none" d="M 335.83732514237585 500.209517756016 L 346 496 L 335.83732514237585 491.790482243984"/></g><g transform="translate(-38,2) scale(1,1)"><path fill="none" stroke="#000000" d="M 335.83732514237585 500.209517756016 L 346 496 L 335.83732514237585 491.790482243984 L 335.83732514237585 500.209517756016" stroke-miterlimit="10"/></g><g transform="translate(-38,2) scale(1,1)"><g><path fill="none" stroke="none"/><text fill="#000000" stroke="none" font-family="Arial" font-size="13px" font-style="normal" font-weight="normal" text-decoration="none" x="159.13134765625" y="491">14 : küldésMegerősítés()</text></g></g><g transform="translate(-38,2) scale(1,1)"><rect fill="#ffffff" stroke="none" x="346" y="496" width="13" height="155"/></g><g transform="translate(-38,2) scale(1,1)"><path fill="none" stroke="#000000" d="M 346 496 L 359 496 L 359 651 L 346 651 L 346 496 Z Z" stroke-miterlimit="10"/></g><g transform="translate(-38,2) scale(1,1)"><path fill="none" stroke="#000000" d="M 359 504 L 583 504" stroke-miterlimit="10"/></g><g transform="translate(-38,2) scale(1,1)"><path fill="#000000" stroke="none" d="M 572.8373251423759 508.209517756016 L 583 504 L 572.8373251423758 499.790482243984"/></g><g transform="translate(-38,2) scale(1,1)"><path fill="none" stroke="#000000" d="M 572.8373251423759 508.209517756016 L 583 504 L 572.8373251423758 499.790482243984 L 572.8373251423759 508.209517756016" stroke-miterlimit="10"/></g><g transform="translate(-38,2) scale(1,1)"><g><path fill="none" stroke="none"/><text fill="#000000" stroke="none" font-family="Arial" font-size="13px" font-style="normal" font-weight="normal" text-decoration="none" x="383.5" y="498">15 : üzenetTovábbítása(levél)</text></g></g><g transform="translate(-38,2) scale(1,1)"><path fill="none" stroke="#000000" d="M 346 512 L 117 512" stroke-miterlimit="10" stroke-dasharray="3"/></g><g transform="translate(-38,2) scale(1,1)"><path fill="none" stroke="#000000" d="M 127.16267485762415 507.790482243984 L 117 512 L 127.16267485762415 516.209517756016" stroke-miterlimit="10"/></g><g transform="translate(-38,2) scale(1,1)"><g><path fill="none" stroke="none"/><text fill="#000000" stroke="none" font-family="Arial" font-size="13px" font-style="normal" font-weight="normal" text-decoration="none" x="135.5" y="527">16 : sikeressség visszaigazolása</text></g></g><g transform="translate(-38,2) scale(1,1)"><path fill="none" stroke="#000000" d="M 359 528 L 584 528" stroke-miterlimit="10"/></g><g transform="translate(-38,2) scale(1,1)"><path fill="#000000" stroke="none" d="M 573.8373251423759 532.209517756016 L 584 528 L 573.8373251423758 523.790482243984"/></g><g transform="translate(-38,2) scale(1,1)"><path fill="none" stroke="#000000" d="M 573.8373251423759 532.209517756016 L 584 528 L 573.8373251423758 523.790482243984 L 573.8373251423759 532.209517756016" stroke-miterlimit="10"/></g><g transform="translate(-38,2) scale(1,1)"><g><path fill="none" stroke="none"/><text fill="#000000" stroke="none" font-family="Arial" font-size="13px" font-style="normal" font-weight="normal" text-decoration="none" x="412.5" y="523">17 : küldésIktatása()</text></g></g><g transform="translate(-38,2) scale(1,1)"><path fill="none" stroke="#000000" d="M 359 536 L 389 536 L 389 556 L 366 556" stroke-miterlimit="10"/></g><g transform="translate(-38,2) scale(1,1)"><path fill="#000000" stroke="none" d="M 376.16267485762415 551.790482243984 L 366 556 L 376.16267485762415 560.209517756016"/></g><g transform="translate(-38,2) scale(1,1)"><path fill="none" stroke="#000000" d="M 376.16267485762415 551.790482243984 L 366 556 L 376.16267485762415 560.209517756016 L 376.16267485762415 551.790482243984" stroke-miterlimit="10"/></g><g transform="translate(-38,2) scale(1,1)"><g><path fill="none" stroke="none"/><text fill="#000000" stroke="none" font-family="Arial" font-size="13px" font-style="normal" font-weight="normal" text-decoration="none" x="391.5" y="550">18 : feladatKiírása(bíráló,"bírálás")</text></g></g><g transform="translate(-38,2) scale(1,1)"><rect fill="#ffffff" stroke="none" x="353" y="556" width="13" height="28"/></g><g transform="translate(-38,2) scale(1,1)"><path fill="none" stroke="#000000" d="M 353 556 L 366 556 L 366 584 L 353 584 L 353 556 Z Z" stroke-miterlimit="10"/></g><g transform="translate(-38,2) scale(1,1)"><path fill="none" stroke="#000000" d="M 359 592 L 389 592 L 389 612 L 366 612" stroke-miterlimit="10"/></g><g transform="translate(-38,2) scale(1,1)"><path fill="#000000" stroke="none" d="M 376.16267485762415 607.790482243984 L 366 612 L 376.16267485762415 616.209517756016"/></g><g transform="translate(-38,2) scale(1,1)"><path fill="none" stroke="#000000" d="M 376.16267485762415 607.790482243984 L 366 612 L 376.16267485762415 616.209517756016 L 376.16267485762415 607.790482243984" stroke-miterlimit="10"/></g><g transform="translate(-38,2) scale(1,1)"><g><path fill="none" stroke="none"/><text fill="#000000" stroke="none" font-family="Arial" font-size="13px" font-style="normal" font-weight="normal" text-decoration="none" x="390.5" y="606">19 : feladatTörlése(dolgozat,"bírálatratovábbítás")</text></g></g><g transform="translate(-38,2) scale(1,1)"><rect fill="#ffffff" stroke="none" x="353" y="612" width="13" height="28"/></g><g transform="translate(-38,2) scale(1,1)"><path fill="none" stroke="#000000" d="M 353 612 L 366 612 L 366 640 L 353 640 L 353 612 Z Z" stroke-miterlimit="10"/></g><g transform="translate(-38,2) scale(1,1)"><path fill="none" stroke="#000000" d="M 346 648 L 117 648" stroke-miterlimit="10" stroke-dasharray="3"/></g><g transform="translate(-38,2) scale(1,1)"><path fill="none" stroke="#000000" d="M 127.16267485762415 643.790482243984 L 117 648 L 127.16267485762415 652.209517756016" stroke-miterlimit="10"/></g><g transform="translate(-38,2) scale(1,1)"><g><path fill="none" stroke="none"/><text fill="#000000" stroke="none" font-family="Arial" font-size="13px" font-style="normal" font-weight="normal" text-decoration="none" x="128.5" y="663">20 : továbbító-felület megjelenítése</text></g></g></g></svg>