<svg version="1.1" xmlns="http://www.w3.org/2000/svg" xmlns:xlink="http://www.w3.org/1999/xlink" width="632.28271484375" height="278"><defs/><g><text fill="#eeeeee" stroke="none" font-family="Arial" font-size="24px" font-style="normal" font-weight="normal" text-decoration="none" x="0" y="0">UNREGISTERED</text><text fill="#eeeeee" stroke="none" font-family="Arial" font-size="24px" font-style="normal" font-weight="normal" text-decoration="none" x="0" y="30">UNREGISTERED</text><text fill="#eeeeee" stroke="none" font-family="Arial" font-size="24px" font-style="normal" font-weight="normal" text-decoration="none" x="0" y="60">UNREGISTERED</text><text fill="#eeeeee" stroke="none" font-family="Arial" font-size="24px" font-style="normal" font-weight="normal" text-decoration="none" x="0" y="90">UNREGISTERED</text><text fill="#eeeeee" stroke="none" font-family="Arial" font-size="24px" font-style="normal" font-weight="normal" text-decoration="none" x="0" y="120">UNREGISTERED</text><text fill="#eeeeee" stroke="none" font-family="Arial" font-size="24px" font-style="normal" font-weight="normal" text-decoration="none" x="0" y="150">UNREGISTERED</text><text fill="#eeeeee" stroke="none" font-family="Arial" font-size="24px" font-style="normal" font-weight="normal" text-decoration="none" x="0" y="180">UNREGISTERED</text><text fill="#eeeeee" stroke="none" font-family="Arial" font-size="24px" font-style="normal" font-weight="normal" text-decoration="none" x="0" y="210">UNREGISTERED</text><text fill="#eeeeee" stroke="none" font-family="Arial" font-size="24px" font-style="normal" font-weight="normal" text-decoration="none" x="0" y="240">UNREGISTERED</text><text fill="#eeeeee" stroke="none" font-family="Arial" font-size="24px" font-style="normal" font-weight="normal" text-decoration="none" x="0" y="270">UNREGISTERED</text><text fill="#eeeeee" stroke="none" font-family="Arial" font-size="24px" font-style="normal" font-weight="normal" text-decoration="none" x="200" y="0">UNREGISTERED</text><text fill="#eeeeee" stroke="none" font-family="Arial" font-size="24px" font-style="normal" font-weight="normal" text-decoration="none" x="200" y="30">UNREGISTERED</text><text fill="#eeeeee" stroke="none" font-family="Arial" font-size="24px" font-style="normal" font-weight="normal" text-decoration="none" x="200" y="60">UNREGISTERED</text><text fill="#eeeeee" stroke="none" font-family="Arial" font-size="24px" font-style="normal" font-weight="normal" text-decoration="none" x="200" y="90">UNREGISTERED</text><text fill="#eeeeee" stroke="none" font-family="Arial" font-size="24px" font-style="normal" font-weight="normal" text-decoration="none" x="200" y="120">UNREGISTERED</text><text fill="#eeeeee" stroke="none" font-family="Arial" font-size="24px" font-style="normal" font-weight="normal" text-decoration="none" x="200" y="150">UNREGISTERED</text><text fill="#eeeeee" stroke="none" font-family="Arial" font-size="24px" font-style="normal" font-weight="normal" text-decoration="none" x="200" y="180">UNREGISTERED</text><text fill="#eeeeee" stroke="none" font-family="Arial" font-size="24px" font-style="normal" font-weight="normal" text-decoration="none" x="200" y="210">UNREGISTERED</text><text fill="#eeeeee" stroke="none" font-family="Arial" font-size="24px" font-style="normal" font-weight="normal" text-decoration="none" x="200" y="240">UNREGISTERED</text><text fill="#eeeeee" stroke="none" font-family="Arial" font-size="24px" font-style="normal" font-weight="normal" text-decoration="none" x="200" y="270">UNREGISTERED</text><text fill="#eeeeee" stroke="none" font-family="Arial" font-size="24px" font-style="normal" font-weight="normal" text-decoration="none" x="400" y="0">UNREGISTERED</text><text fill="#eeeeee" stroke="none" font-family="Arial" font-size="24px" font-style="normal" font-weight="normal" text-decoration="none" x="400" y="30">UNREGISTERED</text><text fill="#eeeeee" stroke="none" font-family="Arial" font-size="24px" font-style="normal" font-weight="normal" text-decoration="none" x="400" y="60">UNREGISTERED</text><text fill="#eeeeee" stroke="none" font-family="Arial" font-size="24px" font-style="normal" font-weight="normal" text-decoration="none" x="400" y="90">UNREGISTERED</text><text fill="#eeeeee" stroke="none" font-family="Arial" font-size="24px" font-style="normal" font-weight="normal" text-decoration="none" x="400" y="120">UNREGISTERED</text><text fill="#eeeeee" stroke="none" font-family="Arial" font-size="24px" font-style="normal" font-weight="normal" text-decoration="none" x="400" y="150">UNREGISTERED</text><text fill="#eeeeee" stroke="none" font-family="Arial" font-size="24px" font-style="normal" font-weight="normal" text-decoration="none" x="400" y="180">UNREGISTERED</text><text fill="#eeeeee" stroke="none" font-family="Arial" font-size="24px" font-style="normal" font-weight="normal" text-decoration="none" x="400" y="210">UNREGISTERED</text><text fill="#eeeeee" stroke="none" font-family="Arial" font-size="24px" font-style="normal" font-weight="normal" text-decoration="none" x="400" y="240">UNREGISTERED</text><text fill="#eeeeee" stroke="none" font-family="Arial" font-size="24px" font-style="normal" font-weight="normal" text-decoration="none" x="400" y="270">UNREGISTERED</text><text fill="#eeeeee" stroke="none" font-family="Arial" font-size="24px" font-style="normal" font-weight="normal" text-decoration="none" x="600" y="0">UNREGISTERED</text><text fill="#eeeeee" stroke="none" font-family="Arial" font-size="24px" font-style="normal" font-weight="normal" text-decoration="none" x="600" y="30">UNREGISTERED</text><text fill="#eeeeee" stroke="none" font-family="Arial" font-size="24px" font-style="normal" font-weight="normal" text-decoration="none" x="600" y="60">UNREGISTERED</text><text fill="#eeeeee" stroke="none" font-family="Arial" font-size="24px" font-style="normal" font-weight="normal" text-decoration="none" x="600" y="90">UNREGISTERED</text><text fill="#eeeeee" stroke="none" font-family="Arial" font-size="24px" font-style="normal" font-weight="normal" text-decoration="none" x="600" y="120">UNREGISTERED</text><text fill="#eeeeee" stroke="none" font-family="Arial" font-size="24px" font-style="normal" font-weight="normal" text-decoration="none" x="600" y="150">UNREGISTERED</text><text fill="#eeeeee" stroke="none" font-family="Arial" font-size="24px" font-style="normal" font-weight="normal" text-decoration="none" x="600" y="180">UNREGISTERED</text><text fill="#eeeeee" stroke="none" font-family="Arial" font-size="24px" font-style="normal" font-weight="normal" text-decoration="none" x="600" y="210">UNREGISTERED</text><text fill="#eeeeee" stroke="none" font-family="Arial" font-size="24px" font-style="normal" font-weight="normal" text-decoration="none" x="600" y="240">UNREGISTERED</text><text fill="#eeeeee" stroke="none" font-family="Arial" font-size="24px" font-style="normal" font-weight="normal" text-decoration="none" x="600" y="270">UNREGISTERED</text><g transform="translate(-134,-166) scale(1,1)"><path fill="#ffffff" stroke="none" d="M 172.68254367897728 217.68 C 172.68254367897728 212.886167936 176.56838600392274 209 181.36181640625 209 C 186.15524680857726 209 190.04108913352272 212.886167936 190.04108913352272 217.68 C 190.04108913352272 222.47383206400002 186.15524680857726 226.36 181.36181640625 226.36 C 176.56838600392274 226.36 172.68254367897728 222.47383206400002 172.68254367897728 217.68 Z"/></g><g transform="translate(-134,-166) scale(1,1)"><path fill="none" stroke="#000000" d="M 172.68254367897728 217.68 C 172.68254367897728 212.886167936 176.56838600392274 209 181.36181640625 209 C 186.15524680857726 209 190.04108913352272 212.886167936 190.04108913352272 217.68 C 190.04108913352272 222.47383206400002 186.15524680857726 226.36 181.36181640625 226.36 C 176.56838600392274 226.36 172.68254367897728 222.47383206400002 172.68254367897728 217.68 Z" stroke-miterlimit="10"/></g><g transform="translate(-134,-166) scale(1,1)"><path fill="none" stroke="#000000" d="M 181.36181640625 226.36 L 181.36181640625 243.64" stroke-miterlimit="10"/></g><g transform="translate(-134,-166) scale(1,1)"><path fill="none" stroke="#000000" d="M 172.17199822443183 232.84 L 190.55163458806817 232.84" stroke-miterlimit="10"/></g><g transform="translate(-134,-166) scale(1,1)"><path fill="none" stroke="#000000" d="M 181.36181640625 243.64 L 168.59818004261365 261" stroke-miterlimit="10"/></g><g transform="translate(-134,-166) scale(1,1)"><path fill="none" stroke="#000000" d="M 181.36181640625 243.64 L 194.12545276988635 261" stroke-miterlimit="10"/></g><g transform="translate(-134,-166) scale(1,1)"><g><path fill="none" stroke="none"/><text fill="#000000" stroke="none" font-family="Arial" font-size="13px" font-style="normal" font-weight="bold" text-decoration="none" x="148.5" y="280">Konzulens</text></g></g><g transform="translate(-134,-166) scale(1,1)"><path fill="#ffffff" stroke="none" d="M 717.4620846946023 361.68 C 717.4620846946023 356.886167936 721.3479270195477 353 726.141357421875 353 C 730.9347878242023 353 734.8206301491477 356.886167936 734.8206301491477 361.68 C 734.8206301491477 366.473832064 730.9347878242023 370.36 726.141357421875 370.36 C 721.3479270195477 370.36 717.4620846946023 366.473832064 717.4620846946023 361.68 Z"/></g><g transform="translate(-134,-166) scale(1,1)"><path fill="none" stroke="#000000" d="M 717.4620846946023 361.68 C 717.4620846946023 356.886167936 721.3479270195477 353 726.141357421875 353 C 730.9347878242023 353 734.8206301491477 356.886167936 734.8206301491477 361.68 C 734.8206301491477 366.473832064 730.9347878242023 370.36 726.141357421875 370.36 C 721.3479270195477 370.36 717.4620846946023 366.473832064 717.4620846946023 361.68 Z" stroke-miterlimit="10"/></g><g transform="translate(-134,-166) scale(1,1)"><path fill="none" stroke="#000000" d="M 726.141357421875 370.36 L 726.141357421875 387.64" stroke-miterlimit="10"/></g><g transform="translate(-134,-166) scale(1,1)"><path fill="none" stroke="#000000" d="M 716.9515392400568 376.84 L 735.3311756036932 376.84" stroke-miterlimit="10"/></g><g transform="translate(-134,-166) scale(1,1)"><path fill="none" stroke="#000000" d="M 726.141357421875 387.64 L 713.3777210582386 405" stroke-miterlimit="10"/></g><g transform="translate(-134,-166) scale(1,1)"><path fill="none" stroke="#000000" d="M 726.141357421875 387.64 L 738.9049937855114 405" stroke-miterlimit="10"/></g><g transform="translate(-134,-166) scale(1,1)"><g><path fill="none" stroke="none"/><text fill="#000000" stroke="none" font-family="Arial" font-size="13px" font-style="normal" font-weight="bold" text-decoration="none" x="700.5" y="424">Hallgató</text></g></g><g transform="translate(-134,-166) scale(1,1)"><path fill="#C0C0C0" stroke="none" d="M 375 424 C 375 414.6111584 414.3989376 407 463 407 C 511.6010624 407 551 414.6111584 551 424 C 551 433.3888416 511.6010624 441 463 441 C 414.3989376 441 375 433.3888416 375 424 Z" opacity="0.2"/></g><g transform="translate(-134,-166) scale(1,1)"><path fill="#ffffff" stroke="none" d="M 368 417 C 368 407.6111584 407.3989376 400 456 400 C 504.6010624 400 544 407.6111584 544 417 C 544 426.3888416 504.6010624 434 456 434 C 407.3989376 434 368 426.3888416 368 417 Z"/></g><g transform="translate(-134,-166) scale(1,1)"><path fill="none" stroke="#000000" d="M 368 417 C 368 407.6111584 407.3989376 400 456 400 C 504.6010624 400 544 407.6111584 544 417 C 544 426.3888416 504.6010624 434 456 434 C 407.3989376 434 368 426.3888416 368 417 Z" stroke-miterlimit="10"/></g><g transform="translate(-134,-166) scale(1,1)"><g><path fill="none" stroke="none"/><text fill="#000000" stroke="none" font-family="Arial" font-size="13px" font-style="normal" font-weight="bold" text-decoration="none" x="398.21728515625" y="422.5">Dolgozat feltöltése</text></g></g><g transform="translate(-134,-166) scale(1,1)"><path fill="#C0C0C0" stroke="none" d="M 383 368 C 383 358.6111584 419.4887888 351 464.5 351 C 509.5112112 351 546 358.6111584 546 368 C 546 377.3888416 509.5112112 385 464.5 385 C 419.4887888 385 383 377.3888416 383 368 Z" opacity="0.2"/></g><g transform="translate(-134,-166) scale(1,1)"><path fill="#ffffff" stroke="none" d="M 376 361 C 376 351.6111584 412.4887888 344 457.5 344 C 502.5112112 344 539 351.6111584 539 361 C 539 370.3888416 502.5112112 378 457.5 378 C 412.4887888 378 376 370.3888416 376 361 Z"/></g><g transform="translate(-134,-166) scale(1,1)"><path fill="none" stroke="#000000" d="M 376 361 C 376 351.6111584 412.4887888 344 457.5 344 C 502.5112112 344 539 351.6111584 539 361 C 539 370.3888416 502.5112112 378 457.5 378 C 412.4887888 378 376 370.3888416 376 361 Z" stroke-miterlimit="10"/></g><g transform="translate(-134,-166) scale(1,1)"><g><path fill="none" stroke="none"/><text fill="#000000" stroke="none" font-family="Arial" font-size="13px" font-style="normal" font-weight="bold" text-decoration="none" x="404.40185546875" y="366.5">Dolgozat leadása</text></g></g><g transform="translate(-134,-166) scale(1,1)"><path fill="#C0C0C0" stroke="none" d="M 391 312 C 391 302.6111584 424.8024976 295 466.5 295 C 508.1975024 295 542 302.6111584 542 312 C 542 321.3888416 508.1975024 329 466.5 329 C 424.8024976 329 391 321.3888416 391 312 Z" opacity="0.2"/></g><g transform="translate(-134,-166) scale(1,1)"><path fill="#ffffff" stroke="none" d="M 384 305 C 384 295.6111584 417.8024976 288 459.5 288 C 501.1975024 288 535 295.6111584 535 305 C 535 314.3888416 501.1975024 322 459.5 322 C 417.8024976 322 384 314.3888416 384 305 Z"/></g><g transform="translate(-134,-166) scale(1,1)"><path fill="none" stroke="#000000" d="M 384 305 C 384 295.6111584 417.8024976 288 459.5 288 C 501.1975024 288 535 295.6111584 535 305 C 535 314.3888416 501.1975024 322 459.5 322 C 417.8024976 322 384 314.3888416 384 305 Z" stroke-miterlimit="10"/></g><g transform="translate(-134,-166) scale(1,1)"><g><path fill="none" stroke="none"/><text fill="#000000" stroke="none" font-family="Arial" font-size="13px" font-style="normal" font-weight="bold" text-decoration="none" x="410.7373046875" y="310.5">Bíráló rögzítése</text></g></g><g transform="translate(-134,-166) scale(1,1)"><path fill="#C0C0C0" stroke="none" d="M 335 256 C 335 246.6111584 396.56084 239 472.5 239 C 548.43916 239 610 246.6111584 610 256 C 610 265.3888416 548.43916 273 472.5 273 C 396.56084 273 335 265.3888416 335 256 Z" opacity="0.2"/></g><g transform="translate(-134,-166) scale(1,1)"><path fill="#ffffff" stroke="none" d="M 328 249 C 328 239.6111584 389.56084 232 465.5 232 C 541.43916 232 603 239.6111584 603 249 C 603 258.3888416 541.43916 266 465.5 266 C 389.56084 266 328 258.3888416 328 249 Z"/></g><g transform="translate(-134,-166) scale(1,1)"><path fill="none" stroke="#000000" d="M 328 249 C 328 239.6111584 389.56084 232 465.5 232 C 541.43916 232 603 239.6111584 603 249 C 603 258.3888416 541.43916 266 465.5 266 C 389.56084 266 328 258.3888416 328 249 Z" stroke-miterlimit="10"/></g><g transform="translate(-134,-166) scale(1,1)"><g><path fill="none" stroke="none"/><text fill="#000000" stroke="none" font-family="Arial" font-size="13px" font-style="normal" font-weight="bold" text-decoration="none" x="372.67822265625" y="254.5">Leadott dolgozat jóváhagyása</text></g></g><g transform="translate(-134,-166) scale(1,1)"><path fill="#C0C0C0" stroke="none" d="M 303 200 C 303 190.6111584 380.230872 183 475.5 183 C 570.769128 183 648 190.6111584 648 200 C 648 209.3888416 570.769128 217 475.5 217 C 380.230872 217 303 209.3888416 303 200 Z" opacity="0.2"/></g><g transform="translate(-134,-166) scale(1,1)"><path fill="#ffffff" stroke="none" d="M 296 193 C 296 183.6111584 373.230872 176 468.5 176 C 563.769128 176 641 183.6111584 641 193 C 641 202.3888416 563.769128 210 468.5 210 C 373.230872 210 296 202.3888416 296 193 Z"/></g><g transform="translate(-134,-166) scale(1,1)"><path fill="none" stroke="#000000" d="M 296 193 C 296 183.6111584 373.230872 176 468.5 176 C 563.769128 176 641 183.6111584 641 193 C 641 202.3888416 563.769128 210 468.5 210 C 373.230872 210 296 202.3888416 296 193 Z" stroke-miterlimit="10"/></g><g transform="translate(-134,-166) scale(1,1)"><g><path fill="none" stroke="none"/><text fill="#000000" stroke="none" font-family="Arial" font-size="13px" font-style="normal" font-weight="bold" text-decoration="none" x="351.122314453125" y="198.5">Leadott dolgozat bírálatra továbbítása</text></g></g><g transform="translate(-134,-166) scale(1,1)"><path fill="none" stroke="#000000" d="M 220 240 L 372 211" stroke-miterlimit="10"/></g><g transform="translate(-134,-166) scale(1,1)"><path fill="none" stroke="#000000" d="M 327 248 L 220 247" stroke-miterlimit="10"/></g><g transform="translate(-134,-166) scale(1,1)"><path fill="none" stroke="#000000" d="M 383 289 L 220 255" stroke-miterlimit="10"/></g><g transform="translate(-134,-166) scale(1,1)"><path fill="none" stroke="#000000" d="M 540 370 L 695 388" stroke-miterlimit="10"/></g><g transform="translate(-134,-166) scale(1,1)"><path fill="none" stroke="#000000" d="M 545 408 L 695 394" stroke-miterlimit="10"/></g></g></svg>